<svg width="130" height="130" viewBox="0 0 130 130" fill="none" xmlns="http://www.w3.org/2000/svg">
<path d="M43.171 86.6667L27.0835 102.917C25.296 104.542 22.9127 105.625 20.3127 105.625C17.7986 105.625 15.3876 104.626 13.6099 102.849C11.8322 101.071 10.8335 98.6599 10.8335 96.1458V94.7917L16.2502 54.8167C16.7962 48.7263 19.5995 43.0602 24.1095 38.931C28.6196 34.8018 34.5104 32.508 40.6252 32.5H89.3752C102.159 32.5 112.613 42.3042 113.75 54.8167L119.167 94.7917V96.1458C119.167 98.6599 118.168 101.071 116.39 102.849C114.613 104.626 112.202 105.625 109.688 105.625C107.088 105.625 104.704 104.542 102.917 102.917L86.8293 86.6667H43.171ZM37.9168 43.3333V54.1667H27.0835V59.5833H37.9168V70.4167H43.3335V59.5833H54.1668V54.1667H43.3335V43.3333H37.9168ZM89.3752 43.3333C88.2977 43.3333 87.2644 43.7613 86.5025 44.5232C85.7407 45.2851 85.3127 46.3184 85.3127 47.3958C85.3127 48.4733 85.7407 49.5066 86.5025 50.2685C87.2644 51.0303 88.2977 51.4583 89.3752 51.4583C90.4526 51.4583 91.4859 51.0303 92.2478 50.2685C93.0097 49.5066 93.4377 48.4733 93.4377 47.3958C93.4377 46.3184 93.0097 45.2851 92.2478 44.5232C91.4859 43.7613 90.4526 43.3333 89.3752 43.3333ZM79.896 52.8125C78.8186 52.8125 77.7852 53.2405 77.0234 54.0024C76.2615 54.7642 75.8335 55.7976 75.8335 56.875C75.8335 57.9524 76.2615 58.9858 77.0234 59.7476C77.7852 60.5095 78.8186 60.9375 79.896 60.9375C80.9734 60.9375 82.0068 60.5095 82.7686 59.7476C83.5305 58.9858 83.9585 57.9524 83.9585 56.875C83.9585 55.7976 83.5305 54.7642 82.7686 54.0024C82.0068 53.2405 80.9734 52.8125 79.896 52.8125M98.8543 52.8125C97.7769 52.8125 96.7436 53.2405 95.9817 54.0024C95.2198 54.7642 94.7918 55.7976 94.7918 56.875C94.7918 57.9524 95.2198 58.9858 95.9817 59.7476C96.7436 60.5095 97.7769 60.9375 98.8543 60.9375C99.9318 60.9375 100.965 60.5095 101.727 59.7476C102.489 58.9858 102.917 57.9524 102.917 56.875C102.917 55.7976 102.489 54.7642 101.727 54.0024C100.965 53.2405 99.9318 52.8125 98.8543 52.8125ZM89.3752 62.2917C88.2977 62.2917 87.2644 62.7197 86.5025 63.4815C85.7407 64.2434 85.3127 65.2767 85.3127 66.3542C85.3127 67.4316 85.7407 68.4649 86.5025 69.2268C87.2644 69.9887 88.2977 70.4167 89.3752 70.4167C90.4526 70.4167 91.4859 69.9887 92.2478 69.2268C93.0097 68.4649 93.4377 67.4316 93.4377 66.3542C93.4377 65.2767 93.0097 64.2434 92.2478 63.4815C91.4859 62.7197 90.4526 62.2917 89.3752 62.2917Z" fill="white"/>
</svg>
