<svg width="130" height="130" viewBox="0 0 130 130" fill="none" xmlns="http://www.w3.org/2000/svg">
<path d="M20.3125 113.496C20.3125 115.743 22.1279 117.559 24.375 117.559H60.6836V69.8242H20.3125V113.496ZM69.3164 117.559H105.625C107.872 117.559 109.688 115.743 109.688 113.496V69.8242H69.3164V117.559ZM111.719 39.3555H92.9805C94.707 36.6387 95.7227 33.4141 95.7227 29.9609C95.7227 20.2998 87.8643 12.4414 78.2031 12.4414C72.9473 12.4414 68.2119 14.7773 65 18.459C61.7881 14.7773 57.0527 12.4414 51.7969 12.4414C42.1357 12.4414 34.2773 20.2998 34.2773 29.9609C34.2773 33.4141 35.2803 36.6387 37.0195 39.3555H18.2812C16.0342 39.3555 14.2188 41.1709 14.2188 43.418V61.1914H60.6836V39.3555H69.3164V61.1914H115.781V43.418C115.781 41.1709 113.966 39.3555 111.719 39.3555ZM60.6836 38.8477H51.7969C46.8965 38.8477 42.9102 34.8613 42.9102 29.9609C42.9102 25.0605 46.8965 21.0742 51.7969 21.0742C56.6973 21.0742 60.6836 25.0605 60.6836 29.9609V38.8477ZM78.2031 38.8477H69.3164V29.9609C69.3164 25.0605 73.3027 21.0742 78.2031 21.0742C83.1035 21.0742 87.0898 25.0605 87.0898 29.9609C87.0898 34.8613 83.1035 38.8477 78.2031 38.8477Z" fill="white"/>
</svg>
