<svg width="28" height="28" viewBox="0 0 28 28" fill="none" xmlns="http://www.w3.org/2000/svg">
<path d="M9.5 14C10.0909 14 10.6761 13.8836 11.2221 13.6575C11.768 13.4313 12.2641 13.0998 12.682 12.682C13.0998 12.2641 13.4313 11.768 13.6575 11.2221C13.8836 10.6761 14 10.0909 14 9.5C14 8.90905 13.8836 8.32389 13.6575 7.77792C13.4313 7.23196 13.0998 6.73588 12.682 6.31802C12.2641 5.90016 11.768 5.56869 11.2221 5.34254C10.6761 5.1164 10.0909 5 9.5 5C8.30653 5 7.16193 5.47411 6.31802 6.31802C5.47411 7.16193 5 8.30653 5 9.5C5 10.6935 5.47411 11.8381 6.31802 12.682C7.16193 13.5259 8.30653 14 9.5 14V14ZM17.1 21.619C17.863 21.854 18.814 22 20 22C26 22 26 18.25 26 18.25C26 17.6533 25.7629 17.081 25.341 16.659C24.919 16.2371 24.3467 16 23.75 16H17.094C17.6752 16.6047 17.9993 17.4113 17.998 18.25V18.805L17.995 18.888C17.9738 19.222 17.9222 19.5534 17.841 19.878C17.6866 20.493 17.4369 21.0801 17.101 21.618L17.1 21.619ZM23.5 10.5C23.5 10.9596 23.4095 11.4148 23.2336 11.8394C23.0577 12.264 22.7999 12.6499 22.4749 12.9749C22.1499 13.2999 21.764 13.5577 21.3394 13.7336C20.9148 13.9095 20.4596 14 20 14C19.5404 14 19.0852 13.9095 18.6606 13.7336C18.236 13.5577 17.8501 13.2999 17.5251 12.9749C17.2001 12.6499 16.9423 12.264 16.7664 11.8394C16.5905 11.4148 16.5 10.9596 16.5 10.5C16.5 9.57174 16.8687 8.6815 17.5251 8.02513C18.1815 7.36875 19.0717 7 20 7C20.9283 7 21.8185 7.36875 22.4749 8.02513C23.1313 8.6815 23.5 9.57174 23.5 10.5V10.5ZM2 18.25C2 17.6533 2.23705 17.081 2.65901 16.659C3.08097 16.2371 3.65326 16 4.25 16H14.75C15.3467 16 15.919 16.2371 16.341 16.659C16.7629 17.081 17 17.6533 17 18.25V18.75C17 18.75 17 24 9.5 24C2 24 2 18.75 2 18.75V18.25Z" fill="black"/>
</svg>
