<svg width="120" height="120" viewBox="0 0 24 24" fill="none" xmlns="http://www.w3.org/2000/svg">
<path d="M23 7.00008C21.2373 6.9031 19.4886 7.36125 18 8.31008C17.64 7.90008 17.27 7.49008 16.88 7.10008L16.59 6.83008L16.73 6.71008C17.219 6.29029 17.5675 5.73059 17.7284 5.10651C17.8894 4.48244 17.855 3.82401 17.63 3.22008C17.3049 2.53826 16.7888 1.96551 16.1444 1.57142C15.5 1.17732 14.755 0.978838 14 1.00008V3.00008C14.3558 2.99513 14.7064 3.08519 15.0158 3.26097C15.3252 3.43676 15.5821 3.6919 15.76 4.00008C15.93 4.40008 15.76 4.84008 15.29 5.31008L15.06 5.52008C14.0169 4.65093 12.8718 3.91215 11.65 3.32008C9.11996 2.18008 7.81996 2.71008 7.17996 3.32008C6.98494 3.51557 6.82884 3.74632 6.71996 4.00008L6.53996 4.53008L5.09996 8.87008C6.23996 11.7101 8.99996 16.7601 15 18.9401L20 17.2801C20.1686 17.2173 20.3171 17.1102 20.43 16.9701L20.64 16.7901C22.07 15.3501 21.15 12.5801 19.23 9.89008C20.37 9.22473 21.6827 8.91484 23 9.00008V7.00008ZM19.21 15.3701H19.15C18.46 15.7401 15.6 14.8001 12.36 11.5601C12.02 11.2201 11.7 10.8901 11.41 10.5601C11.31 10.4501 11.22 10.3301 11.12 10.2101L10.59 9.57008L10.31 9.18008C10.17 8.99008 10.03 8.80008 9.90996 8.62008C9.78996 8.44008 9.74996 8.36008 9.66996 8.23008C9.58996 8.10008 9.44996 7.89008 9.35996 7.72008C9.26996 7.55008 9.22996 7.48008 9.16996 7.35008C9.10996 7.22008 8.99996 7.07008 8.93996 6.93008C8.87996 6.79008 8.84996 6.70008 8.79996 6.59008C8.74996 6.48008 8.68996 6.32008 8.64996 6.19008C8.60996 6.06008 8.59996 6.00008 8.57996 5.90008C8.55996 5.80008 8.51996 5.66008 8.49996 5.56008C8.49515 5.48015 8.49515 5.40001 8.49996 5.32008C8.49013 5.23369 8.49013 5.14647 8.49996 5.06008L8.60996 4.75008C8.77996 4.57008 9.51996 4.52008 10.84 5.12008C11.7221 5.54386 12.5568 6.06009 13.33 6.66008C12.9085 6.84611 12.459 6.961 12 7.00008V9.00008C13.0623 8.9398 14.0931 8.61682 15 8.06008L15.49 8.52008C15.93 8.95008 16.32 9.38008 16.68 9.79008C16.077 10.8182 15.8375 12.0193 16 13.2001L18 12.8101C17.9324 12.4331 17.9324 12.0471 18 11.6701C19.29 13.6401 19.53 15.0601 19.21 15.3701V15.3701ZM4.39996 11.0001L2.16996 17.7001C2.009 18.192 1.96674 18.715 2.04663 19.2264C2.12652 19.7377 2.32629 20.2229 2.6296 20.6423C2.93292 21.0617 3.33117 21.4033 3.79181 21.6393C4.25245 21.8753 4.76239 21.9989 5.27996 22.0001C5.62019 21.9968 5.95774 21.9394 6.27996 21.8301L12.8 19.6601C9.12009 17.7807 6.16629 14.7355 4.39996 11.0001V11.0001Z" fill="white"/>
</svg>
