<svg width="107" height="120" viewBox="0 0 107 150" fill="none" xmlns="http://www.w3.org/2000/svg">
<path d="M78.7175 18.75H89.1667C99.0029 18.75 107 27.1436 107 37.5V131.25C107 141.592 99.0029 150 89.1667 150H17.8333C7.9832 150 0 141.592 0 131.25V37.5C0 27.1436 7.9832 18.75 17.8333 18.75H28.2826C31.9328 7.8252 41.8526 0 53.5 0C65.1474 0 75.0672 7.8252 78.7175 18.75ZM53.5 37.5C58.432 37.5 62.4167 33.3105 62.4167 28.125C62.4167 22.9482 58.432 18.75 53.5 18.75C48.568 18.75 44.5833 22.9482 44.5833 28.125C44.5833 33.3105 48.568 37.5 53.5 37.5ZM29.3693 67.5293C28.1154 71.1914 29.9544 75.2051 33.1867 76.5234C36.9206 77.8125 40.738 75.9082 41.9641 72.2461L42.1034 71.8652C42.4099 70.9277 43.2458 70.3125 44.1932 70.3125H60.4383C62.751 70.3125 64.6458 72.3047 64.6458 74.7363C64.6458 76.3477 63.8378 77.8125 62.5281 78.6035L50.1841 86.0449C48.0943 87.3047 46.8125 89.6191 46.8125 92.1387V96.0938C46.8125 99.9902 49.794 103.125 53.5 103.125C57.1503 103.125 60.1318 100.049 59.9367 96.2109L69.1878 90.791C74.6492 87.5098 78.0208 81.3867 78.0208 74.7363C78.0208 64.541 70.1352 56.25 60.4383 56.25H44.1932C37.5893 56.25 31.7099 60.6152 29.4807 67.1777L29.3693 67.5293V67.5293ZM53.5 112.5C48.568 112.5 44.5833 116.689 44.5833 121.875C44.5833 127.061 48.568 131.25 53.5 131.25C58.432 131.25 62.4167 127.061 62.4167 121.875C62.4167 116.689 58.432 112.5 53.5 112.5Z" fill="white"/>
</svg>
