<svg width="130" height="130" viewBox="0 0 64 64" fill="none" xmlns="http://www.w3.org/2000/svg">
<path fill-rule="evenodd" clip-rule="evenodd" d="M6.01 42.439H15.989L20 2H2L6.01 42.439Z" fill="white"/>
<path d="M10.9999 62C15.2326 62 18.6639 58.5768 18.6639 54.354C18.6639 50.1312 15.2326 46.708 10.9999 46.708C6.76723 46.708 3.33594 50.1312 3.33594 54.354C3.33594 58.5768 6.76723 62 10.9999 62Z" fill="white"/>
<path fill-rule="evenodd" clip-rule="evenodd" d="M40.249 2.06408C28.612 2.78908 22.531 9.37808 22 21.2961H33.74C33.887 17.1671 36.191 14.0811 40.481 13.6271C44.692 13.1801 48.686 14.1821 49.896 17.0611C51.203 20.1711 48.269 23.7851 46.874 25.3021C44.292 28.1151 40.099 30.1671 37.925 33.2031C35.794 36.1761 35.415 40.0891 35.251 44.8781H45.597C45.742 41.8161 45.946 38.8831 47.339 36.9801C49.605 33.8881 52.989 32.4391 55.825 29.9971C58.534 27.6631 61.384 24.8501 61.868 20.4971C63.319 7.46608 52.683 1.28908 40.249 2.06408Z" fill="white"/>
<path d="M40.5159 61.9991C44.1234 61.9991 47.0479 59.1189 47.0479 55.5661C47.0479 52.0132 44.1234 49.1331 40.5159 49.1331C36.9084 49.1331 33.9839 52.0132 33.9839 55.5661C33.9839 59.1189 36.9084 61.9991 40.5159 61.9991Z" fill="white"/>
</svg>
